# xmcd
# 
# Track frame offsets:
#     150
#     16413
#     32501
#     47752
#     67232
#     85350
#     103368
#     120041
#     138007
#     152939
# 
# Disc length: 2340
# 
# Revision: 4
# Processed by: cddbd v1.5.2PL0 Copyright (c) Steve Scherf et al.
# Submitted via: fre:ac v1.0.31
# 
DISCID=7f09220a
DTITLE=Unheilig - Lichter der Stadt CD 2
DYEAR=2012
DGENRE=Gothic Rock
TTITLE0=Brenne auf (Demoversion)
TTITLE1=Das Leben ist schön (Demoversion)
TTITLE2=So wie du warst (Demoversion)
TTITLE3=Ein großes Leben (Demoversion)
TTITLE4=Ein guter Weg (Demoversion)
TTITLE5=Herzwerk (Demoversion)
TTITLE6=Wie wir waren (Demoversion)
TTITLE7=Unsterblich (Demoversion)
TTITLE8=Vergessen (Demoversion)
TTITLE9=Zeitreise (Demoversion)
EXTD=
EXTT0=
EXTT1=
EXTT2=
EXTT3=
EXTT4=
EXTT5=
EXTT6=
EXTT7=
EXTT8=
EXTT9=
PLAYORDER=
